<svg width="1075" height="1075" viewBox="0 0 1075 1075" fill="none" xmlns="http://www.w3.org/2000/svg">
<path d="M37.2087 46.9622C120.928 -11.6834 1005.96 -19.5028 1041.84 46.9622C1077.72 113.427 1093.67 1000.93 1041.84 1032.21C990.016 1063.49 37.2087 1110.4 37.2087 1032.21C37.2087 954.014 -46.5108 105.608 37.2087 46.9622Z" fill="#D5D5D5"/>
<path d="M90.1509 98.951C165.687 46.0377 964.215 38.9826 996.588 98.951C1028.96 158.92 1043.35 959.674 996.588 987.894C949.827 1016.12 90.151 1058.45 90.1509 987.894C90.1509 917.344 14.6145 151.864 90.1509 98.951Z" fill="#B5B5B5"/>
<path d="M657.414 462.265H687.945M435.786 411.381C435.786 411.381 447.654 371.804 467.447 371.804C491.193 371.804 555.646 371.804 598.615 371.804C621.755 371.804 633.668 411.381 633.668 411.381C633.668 411.381 652.891 411.381 722.998 411.381C793.105 411.381 765.967 693.654 722.998 697.462C680.029 701.269 405.256 697.462 348.718 697.462C292.18 697.462 297.834 411.381 338.541 411.381C379.248 411.381 435.786 411.381 435.786 411.381ZM529.639 462.265C481.468 464.693 440.937 494.592 435.786 542.548C430.082 595.66 476.292 639.308 529.639 642.055C585.783 644.946 639.611 598.452 633.668 542.548C628.243 491.519 580.891 459.681 529.639 462.265Z" stroke="#D5D5D5" stroke-width="24.2481"/>
</svg>
