<svg width="226" height="340" viewBox="0 0 226 340" fill="none" xmlns="http://www.w3.org/2000/svg">
<path d="M123.152 325.968C123.152 325.968 111.329 285.178 117.831 283.995C124.334 282.813 122.265 318.874 127.586 325.968C132.906 333.062 218.157 334.245 222 325.968C225.842 317.692 225.128 291.089 216.852 283.995C208.576 276.901 129.359 283.995 129.359 283.995M120.787 325.968C120.865 326.028 120.945 326.088 121.025 326.148M100.983 242.614C100.983 242.614 107.782 246.752 112.806 246.752C117.831 246.752 112.428 212.903 123.152 196.503C133.876 180.102 143.67 231.77 138.522 246.752C133.375 261.734 217.248 258.033 222 250.545C226.752 243.057 221.243 229.717 217.896 218.672M100.983 242.614C100.983 242.614 107.782 189.113 115.467 179.359M100.983 242.614L98.3228 257.393M115.467 179.359C123.152 169.604 195.866 176.698 202.96 183.201C206.972 186.879 213.537 204.292 217.896 218.672M115.467 179.359L100.983 151.278L115.467 142.411L137.109 166.412C150.751 166.133 165.609 167.392 179.081 168.747L182.237 140.342M115.467 179.359L90.3669 167.342C90.3669 167.342 90.2394 167.836 90.008 168.747M115.467 179.359C141.824 164.797 184.5 164 182.237 140.342M196.406 151.278L182.237 140.342M196.406 151.278C196.406 151.278 190.33 186.157 192.91 186.157C195.489 186.157 228.649 247.806 213.009 277.197C213.009 277.197 216.674 312.762 214.783 328.629C212.9 344.425 139.176 339.608 121.025 326.148M196.406 151.278C196.406 151.278 199.377 152.858 202.022 156.996C204.668 161.135 217.896 218.672 217.896 218.672M182.237 140.342C182.237 140.342 157.563 129.06 154.016 124.922M98.3228 257.393C98.3228 257.393 80.292 255.028 76.154 246.752C74.7363 243.916 75.9583 233.702 78.1777 221.499M98.3228 257.393C98.3228 257.393 98.7114 259.619 93.8893 264.191C88.5995 269.207 79.56 274.595 76.154 270.103C55.7589 243.205 54.0543 192.66 47.4825 186.157C40.9106 179.654 30.6798 180.185 25.9048 171.082C20.3075 160.411 28.5651 140.342 28.5651 140.342M98.3228 257.393C91.0924 305.49 97.0157 320.359 121.025 326.148M28.5651 140.342C28.5651 140.342 31.8165 157.781 37.4326 157.781C43.0487 157.781 45.3125 149.268 50.7339 151.278C58.0826 154.003 41.667 165.828 47.4825 171.082C57.1923 179.855 69.3668 223.62 65.2175 229.312C61.0682 235.004 78.1777 221.499 78.1777 221.499M28.5651 140.342C28.5651 140.342 25.96 124.675 22.7762 113.986C19.2053 101.996 4.74584 101.276 1.19851 96.2505C-2.34882 91.2254 42.2017 64.6715 90.3669 63.6926M154.016 124.922C154.016 124.922 205.09 114.431 208.427 79.4022C211.651 45.5654 198.577 29.0414 170.15 10.4083C142.874 -7.47 98.3197 0.32547 87.2139 32.1427C81.1794 49.4311 90.3669 63.6926 90.3669 63.6926M154.016 124.922C154.016 124.922 137.443 127.764 129.202 122.586C123.183 118.803 119.539 115.491 117.831 108.369C116.124 101.247 116.884 93.9383 112.634 87.9742C106.467 79.3218 97.3016 72.0126 97.3016 72.0126M97.3016 72.0126C97.3016 72.0126 101.623 81.981 100.983 85.427C98.7001 97.7149 104.653 111.253 108.792 117.164C108.792 117.164 117.984 128.077 122.542 124.922C126.365 122.275 126.047 122.586 126.047 122.586L132.02 132.656C132.02 132.656 95.6377 153.307 93.0023 157.781C90.3669 162.255 90.008 168.747 90.008 168.747M97.3016 72.0126C97.3016 72.0126 92.7342 67.2193 90.3669 63.6926M78.1777 221.499C81.8963 201.053 88.4146 175.021 90.008 168.747" stroke="black" stroke-width="1.80709"/>
</svg>
