<svg width="237" height="127" viewBox="0 0 237 127" fill="none" xmlns="http://www.w3.org/2000/svg">
<path d="M53.1848 104.014C53.1848 107.075 52.6256 109.96 51.507 112.668C50.3884 115.376 48.8283 117.731 46.8266 119.733C44.8249 121.734 42.47 123.324 39.7618 124.501C37.1126 125.679 34.2278 126.267 31.1076 126.267C29.047 126.267 27.0159 125.944 25.0142 125.296C23.0125 124.648 21.1581 123.736 19.4507 122.558C17.8023 121.322 16.3599 119.85 15.1236 118.143C13.8873 116.436 13.0042 114.552 12.4743 112.491L14.5054 111.961C16.0361 113.845 17.8023 115.405 19.804 116.642C21.8645 117.878 24.19 118.496 26.7804 118.496C28.9587 118.496 30.9604 118.025 32.7854 117.083C34.6694 116.141 36.2589 114.905 37.5541 113.374C38.9082 111.844 39.9385 110.077 40.6449 108.076C41.4103 106.015 41.793 103.925 41.793 101.806C41.793 99.2743 41.4397 97.1843 40.7333 95.5359C40.0268 93.8285 39.0848 92.4156 37.9074 91.297C36.7888 90.1196 35.523 89.1187 34.1101 88.2945C32.6971 87.4114 31.2547 86.5283 29.7829 85.6452C28.37 84.7621 26.9865 83.7613 25.6324 82.6427C24.3372 81.5241 23.2186 80.0817 22.2766 78.3156C22.2178 81.7891 21.629 85.4392 20.5105 89.2659C19.3919 93.0926 17.8612 96.8016 15.9184 100.393C14.0344 103.984 11.8562 107.34 9.3835 110.46C6.91084 113.58 4.291 116.2 1.52398 118.32L0.817509 117.083C2.70144 115.082 4.34988 112.58 5.76282 109.577C7.17577 106.574 8.32379 103.425 9.20688 100.128C10.1488 96.7722 10.8259 93.4164 11.238 90.0607C11.709 86.7049 11.9445 83.6436 11.9445 80.8765C11.9445 79.4047 11.7973 77.9623 11.5029 76.5494C11.2086 75.1364 11.0614 73.7529 11.0614 72.3989C11.0614 70.7504 11.5324 69.4846 12.4743 68.6016C13.4752 67.7185 14.7409 67.2769 16.2716 67.2769C17.4491 67.2769 18.391 67.5418 19.0975 68.0717C19.804 68.6016 20.4516 69.308 21.0403 70.1911C21.629 71.0153 22.2178 71.9867 22.8065 73.1053C23.3952 74.165 24.1311 75.2836 25.0142 76.4611C25.9562 77.5797 27.1042 78.6982 28.4583 79.8168C29.8712 80.8765 31.6668 81.8185 33.8451 82.6427C36.3767 83.5847 38.7904 84.6738 41.0865 85.9102C43.4414 87.0876 45.5019 88.5006 47.2681 90.149C49.0932 91.7974 50.5356 93.7697 51.5953 96.0657C52.655 98.3029 53.1848 100.952 53.1848 104.014ZM112.97 96.9488C112.97 101.07 112.293 104.897 110.939 108.429C109.585 111.961 107.672 115.023 105.199 117.613C102.726 120.204 99.7532 122.235 96.2797 123.706C92.8651 125.178 89.0678 125.914 84.8878 125.914C81.1788 125.914 77.8231 125.208 74.8206 123.795C71.8769 122.441 69.3454 120.586 67.226 118.231C65.1066 115.876 63.4876 113.139 62.369 110.019C61.2504 106.839 60.6911 103.454 60.6911 99.863C60.6911 96.8605 61.1032 94.0052 61.9274 91.297C62.8105 88.5889 64.0174 86.0868 65.5481 83.7907C67.0788 81.4358 68.9039 79.287 71.0233 77.3442C73.1427 75.3425 75.4387 73.5469 77.9114 71.9573L78.9711 72.7521C76.4985 75.6369 74.5557 78.816 73.1427 82.2895C71.7298 85.763 71.0233 89.4425 71.0233 93.3281C71.0233 96.154 71.4354 99.0388 72.2596 101.982C73.1427 104.867 74.4085 107.516 76.0569 109.93C77.7053 112.344 79.7659 114.316 82.2386 115.847C84.7112 117.378 87.5371 118.143 90.7162 118.143C92.7179 118.143 94.6018 117.731 96.368 116.907C98.1342 116.082 99.6649 114.964 100.96 113.551C102.314 112.138 103.374 110.548 104.139 108.782C104.963 106.957 105.376 105.073 105.376 103.13C105.376 101.247 105.081 99.4215 104.492 97.6553C103.963 95.8302 103.197 94.1523 102.196 92.6216C101.196 91.0321 99.9887 89.6191 98.5757 88.3828C97.1628 87.0876 95.6321 86.0279 93.9837 85.2037C93.0417 84.7327 92.1292 84.3795 91.2461 84.144C90.4219 83.9085 89.5093 83.6436 88.5085 83.3492C88.0964 83.2903 87.6548 83.202 87.1839 83.0843C86.7129 82.9076 86.2713 82.731 85.8592 82.5544C85.4471 82.3189 85.0939 82.0245 84.7995 81.6713C84.5052 81.3181 84.358 80.8765 84.358 80.3467C84.358 79.287 84.7406 78.3156 85.506 77.4325C86.2713 76.5494 87.1839 75.784 88.2436 75.1364C89.3033 74.43 90.4219 73.9001 91.5993 73.5469C92.7768 73.1348 93.8071 72.9287 94.6901 72.9287C97.6927 72.9287 100.342 73.6941 102.638 75.2247C104.934 76.7554 106.847 78.6982 108.378 81.0531C109.909 83.4081 111.057 85.9985 111.822 88.8244C112.587 91.6502 112.97 94.3584 112.97 96.9488ZM168.252 113.286C166.368 117.172 163.718 120.262 160.304 122.558C156.889 124.796 153.004 125.914 148.647 125.914C145.056 125.914 141.847 124.825 139.021 122.647C136.195 120.468 133.693 117.613 131.515 114.081C129.396 110.548 127.571 106.574 126.04 102.159C124.568 97.6847 123.332 93.1515 122.331 88.5594C121.389 83.9674 120.682 79.5519 120.212 75.3131C119.799 71.0153 119.593 67.2769 119.593 64.0978C119.593 60.2122 119.799 55.9439 120.212 51.293C120.624 46.642 121.301 41.9616 122.243 37.2518C123.185 32.4831 124.391 27.8616 125.863 23.3873C127.394 18.9129 129.219 14.9685 131.338 11.5538C133.517 8.08034 136.019 5.31332 138.845 3.25278C141.671 1.13336 144.909 0.0736474 148.559 0.0736474C151.679 0.0736474 154.211 0.986175 156.153 2.81123C158.096 4.63629 159.627 6.90289 160.745 9.61104C161.864 12.2603 162.6 15.0862 162.953 18.0887C163.365 21.0912 163.571 23.7699 163.571 26.1248C163.571 32.4831 162.806 38.7531 161.275 44.9347C159.803 51.0575 157.743 56.8564 155.094 62.3316C152.503 67.7479 149.442 72.6932 145.909 77.1675C142.377 81.583 138.58 85.292 134.518 88.2945C135.342 92.239 136.313 96.0951 137.432 99.863C138.609 103.572 140.022 106.898 141.671 109.842C143.319 112.727 145.203 115.082 147.322 116.907C149.501 118.673 151.973 119.556 154.74 119.556C157.507 119.556 159.892 118.997 161.893 117.878C163.895 116.759 165.75 115.111 167.457 112.933L168.252 113.286ZM131.868 58.7992C131.809 60.0944 131.78 61.684 131.78 63.5679C131.839 65.4519 131.927 67.5418 132.045 69.8379C132.222 72.0751 132.457 74.4888 132.751 77.0792C133.046 79.6696 133.428 82.3189 133.899 85.0271C137.844 81.4947 141.2 77.5797 143.967 73.2819C146.734 68.9842 149 64.3627 150.766 59.4174C152.533 54.4132 153.798 49.1735 154.564 43.6984C155.388 38.1643 155.8 32.4242 155.8 26.4781C155.8 25.7127 155.771 24.7119 155.712 23.4756C155.712 22.2392 155.623 20.9146 155.447 19.5017C155.27 18.0887 155.005 16.6758 154.652 15.2628C154.358 13.8499 153.916 12.5841 153.327 11.4655C152.798 10.2881 152.091 9.34611 151.208 8.63964C150.384 7.87429 149.383 7.49162 148.206 7.49162C145.968 7.49162 143.996 8.6102 142.289 10.8474C140.64 13.0257 139.198 15.8221 137.962 19.2367C136.784 22.6514 135.783 26.4192 134.959 30.5403C134.194 34.6614 133.576 38.6353 133.105 42.462C132.634 46.2299 132.31 49.6151 132.133 52.6176C131.957 55.6201 131.868 57.6807 131.868 58.7992ZM208.786 76.726C208.786 77.3736 208.55 77.9623 208.079 78.4922C207.608 78.9632 207.049 79.1987 206.401 79.1987C205.871 79.1987 205.312 79.0515 204.723 78.7571C204.135 78.4039 203.458 78.0212 202.692 77.6091C201.986 77.197 201.132 76.8437 200.131 76.5494C199.189 76.1961 198.1 76.0195 196.864 76.0195C193.979 76.0195 191.389 76.9321 189.093 78.7571C186.855 80.5233 184.942 82.731 183.353 85.3803C181.822 88.0296 180.644 90.8555 179.82 93.858C178.996 96.8605 178.584 99.5686 178.584 101.982C178.584 103.69 178.731 105.368 179.025 107.016C179.32 108.606 179.82 110.077 180.527 111.431C181.292 112.727 182.322 113.786 183.617 114.611C184.913 115.376 186.561 115.759 188.563 115.759C190.682 115.759 192.713 115.376 194.656 114.611C196.599 113.786 198.424 112.727 200.131 111.431C200.19 109.548 200.485 107.575 201.014 105.515C201.603 103.395 202.339 101.335 203.222 99.3331C204.105 97.2726 205.106 95.3298 206.225 93.5047C207.402 91.6797 208.609 90.0607 209.845 88.6477L210.993 89.3542C210.346 91.3559 209.875 93.4164 209.58 95.5359C209.286 97.6553 209.139 99.7453 209.139 101.806C209.139 103.925 209.315 105.927 209.669 107.811C210.022 109.695 210.64 111.343 211.523 112.756C212.406 114.11 213.613 115.199 215.144 116.024C216.675 116.789 218.647 117.172 221.061 117.172C224.004 117.172 226.712 116.495 229.185 115.14C231.658 113.786 233.836 112.079 235.72 110.019L236.426 110.372C235.367 112.432 233.983 114.405 232.276 116.289C230.569 118.172 228.655 119.88 226.536 121.41C224.475 122.882 222.267 124.06 219.913 124.943C217.558 125.826 215.232 126.267 212.936 126.267C209.698 126.267 207.049 125.325 204.988 123.442C202.928 121.616 201.515 119.291 200.749 116.465C198.277 118.938 195.51 121.028 192.448 122.735C189.446 124.384 186.267 125.208 182.911 125.208C180.438 125.208 178.231 124.737 176.288 123.795C174.404 122.912 172.814 121.705 171.519 120.174C170.224 118.643 169.223 116.848 168.517 114.787C167.869 112.668 167.545 110.46 167.545 108.164C167.545 105.515 167.957 102.807 168.782 100.04C169.665 97.2137 170.842 94.4467 172.314 91.7386C173.845 89.0304 175.64 86.4694 177.701 84.0557C179.761 81.6419 181.998 79.5225 184.412 77.6974C186.885 75.8723 189.475 74.43 192.183 73.3703C194.892 72.3105 197.659 71.7807 200.485 71.7807C201.132 71.7807 201.927 71.869 202.869 72.0456C203.811 72.1634 204.723 72.3989 205.606 72.7521C206.49 73.1053 207.225 73.6057 207.814 74.2533C208.462 74.9009 208.786 75.7252 208.786 76.726Z" fill="black"/>
</svg>
