<svg width="1024" height="1024" viewBox="0 0 1024 1024" fill="none" xmlns="http://www.w3.org/2000/svg">
<circle cx="512" cy="512" r="512" fill="#FFFF67"/>
<path d="M312.101 592.97C312.101 603.078 310.254 612.603 306.561 621.545C302.867 630.487 297.716 638.262 291.107 644.871C284.498 651.48 276.722 656.729 267.781 660.617C259.033 664.504 249.508 666.448 239.206 666.448C232.402 666.448 225.696 665.379 219.087 663.241C212.478 661.103 206.354 658.09 200.717 654.202C195.274 650.12 190.512 645.26 186.43 639.623C182.348 633.986 179.432 627.765 177.683 620.962L184.389 619.212C189.443 625.433 195.274 630.584 201.884 634.666C208.687 638.748 216.365 640.789 224.918 640.789C232.111 640.789 238.72 639.234 244.746 636.124C250.966 633.014 256.215 628.932 260.491 623.878C264.962 618.824 268.364 612.992 270.696 606.383C273.223 599.579 274.487 592.679 274.487 585.681C274.487 577.322 273.321 570.421 270.988 564.979C268.655 559.341 265.545 554.676 261.657 550.983C257.964 547.095 253.785 543.791 249.119 541.069C244.454 538.153 239.692 535.238 234.832 532.322C230.167 529.406 225.599 526.101 221.128 522.408C216.851 518.715 213.158 513.952 210.048 508.121C209.853 519.589 207.91 531.641 204.216 544.276C200.523 556.912 195.469 569.158 189.054 581.015C182.834 592.873 175.641 603.953 167.477 614.256C159.313 624.558 150.663 633.208 141.527 640.206L139.194 636.124C145.414 629.515 150.857 621.253 155.522 611.34C160.188 601.426 163.978 591.026 166.894 580.141C170.004 569.061 172.24 557.981 173.6 546.901C175.155 535.821 175.933 525.713 175.933 516.576C175.933 511.717 175.447 506.954 174.475 502.289C173.503 497.624 173.017 493.056 173.017 488.585C173.017 483.142 174.572 478.963 177.683 476.047C180.987 473.131 185.166 471.673 190.22 471.673C194.108 471.673 197.218 472.548 199.551 474.297C201.884 476.047 204.022 478.38 205.966 481.295C207.91 484.017 209.853 487.224 211.797 490.917C213.741 494.416 216.171 498.11 219.087 501.997C222.197 505.691 225.987 509.384 230.458 513.077C235.124 516.576 241.052 519.687 248.245 522.408C256.603 525.518 264.573 529.114 272.154 533.196C279.93 537.084 286.733 541.749 292.565 547.192C298.591 552.635 303.353 559.147 306.852 566.728C310.351 574.115 312.101 582.862 312.101 592.97ZM509.5 569.644C509.5 583.251 507.264 595.886 502.794 607.549C498.323 619.212 492.005 629.32 483.841 637.873C475.677 646.426 465.86 653.133 454.391 657.992C443.117 662.852 430.579 665.282 416.778 665.282C404.531 665.282 393.451 662.949 383.538 658.284C373.818 653.813 365.46 647.69 358.462 639.915C351.464 632.139 346.118 623.1 342.425 612.798C338.732 602.301 336.885 591.124 336.885 579.266C336.885 569.352 338.246 559.925 340.967 550.983C343.883 542.041 347.868 533.78 352.922 526.199C357.976 518.423 364.002 511.328 371 504.913C377.998 498.304 385.579 492.375 393.743 487.127L397.242 489.751C389.078 499.276 382.663 509.773 377.998 521.242C373.332 532.71 371 544.86 371 557.689C371 567.02 372.36 576.545 375.082 586.264C377.998 595.789 382.177 604.536 387.62 612.506C393.062 620.476 399.866 626.988 408.03 632.042C416.194 637.096 425.525 639.623 436.022 639.623C442.631 639.623 448.851 638.262 454.683 635.541C460.514 632.819 465.569 629.126 469.845 624.461C474.316 619.796 477.815 614.547 480.342 608.716C483.063 602.69 484.424 596.469 484.424 590.054C484.424 583.834 483.452 577.808 481.508 571.977C479.759 565.951 477.232 560.411 473.927 555.356C470.623 550.108 466.638 545.443 461.972 541.361C457.307 537.084 452.253 533.585 446.81 530.864C443.7 529.309 440.687 528.142 437.771 527.365C435.05 526.587 432.037 525.713 428.732 524.741C427.372 524.546 425.914 524.255 424.359 523.866C422.804 523.283 421.346 522.7 419.985 522.116C418.624 521.339 417.458 520.367 416.486 519.201C415.514 518.034 415.028 516.576 415.028 514.827C415.028 511.328 416.292 508.121 418.819 505.205C421.346 502.289 424.359 499.762 427.858 497.624C431.357 495.291 435.05 493.542 438.938 492.375C442.825 491.015 446.227 490.334 449.143 490.334C459.057 490.334 467.804 492.861 475.385 497.915C482.966 502.969 489.284 509.384 494.338 517.16C499.392 524.935 503.182 533.488 505.709 542.819C508.236 552.149 509.5 561.091 509.5 569.644ZM692.029 623.586C685.808 636.416 677.061 646.621 665.786 654.202C654.512 661.589 641.682 665.282 627.298 665.282C615.44 665.282 604.846 661.686 595.516 654.493C586.185 647.301 577.924 637.873 570.731 626.21C563.734 614.547 557.708 601.426 552.654 586.847C547.794 572.074 543.712 557.106 540.407 541.944C537.297 526.782 534.964 512.203 533.409 498.207C532.049 484.017 531.368 471.673 531.368 461.176C531.368 448.347 532.049 434.254 533.409 418.897C534.77 403.541 537.005 388.087 540.116 372.536C543.226 356.791 547.211 341.532 552.07 326.758C557.124 311.985 563.15 298.961 570.148 287.687C577.341 276.218 585.602 267.082 594.933 260.278C604.263 253.28 614.954 249.781 627.006 249.781C637.309 249.781 645.667 252.794 652.082 258.82C658.497 264.846 663.551 272.33 667.244 281.272C670.938 290.019 673.367 299.35 674.534 309.264C675.894 319.177 676.575 328.022 676.575 335.797C676.575 356.791 674.048 377.493 668.994 397.904C664.134 418.12 657.331 437.267 648.583 455.345C640.03 473.228 629.922 489.557 618.259 504.33C606.596 518.909 594.058 531.155 580.645 541.069C583.367 554.093 586.574 566.825 590.267 579.266C594.155 591.512 598.82 602.495 604.263 612.214C609.706 621.739 615.926 629.515 622.924 635.541C630.116 641.372 638.281 644.288 647.417 644.288C656.553 644.288 664.426 642.442 671.035 638.748C677.644 635.055 683.767 629.612 689.404 622.42L692.029 623.586ZM571.898 443.682C571.703 447.958 571.606 453.207 571.606 459.427C571.801 465.647 572.092 472.548 572.481 480.129C573.064 487.516 573.842 495.486 574.814 504.039C575.786 512.592 577.049 521.339 578.604 530.281C591.628 518.617 602.708 505.691 611.844 491.501C620.98 477.31 628.464 462.051 634.296 445.723C640.127 429.2 644.307 411.899 646.834 393.822C649.555 375.549 650.916 356.597 650.916 336.964C650.916 334.437 650.819 331.132 650.624 327.05C650.624 322.968 650.333 318.594 649.75 313.929C649.166 309.264 648.292 304.598 647.125 299.933C646.153 295.268 644.695 291.088 642.752 287.395C641.002 283.507 638.669 280.397 635.754 278.065C633.032 275.537 629.728 274.274 625.84 274.274C618.453 274.274 611.941 277.967 606.304 285.354C600.861 292.546 596.099 301.78 592.017 313.054C588.129 324.328 584.825 336.769 582.103 350.376C579.576 363.983 577.535 377.104 575.98 389.739C574.425 402.18 573.356 413.357 572.773 423.271C572.189 433.185 571.898 439.988 571.898 443.682ZM825.863 502.872C825.863 505.01 825.086 506.954 823.531 508.704C821.976 510.259 820.129 511.036 817.991 511.036C816.241 511.036 814.395 510.55 812.451 509.579C810.507 508.412 808.271 507.149 805.744 505.788C803.412 504.427 800.593 503.261 797.289 502.289C794.178 501.123 790.582 500.54 786.5 500.54C776.975 500.54 768.422 503.553 760.841 509.579C753.455 515.41 747.137 522.7 741.889 531.447C736.835 540.194 732.947 549.525 730.225 559.439C727.504 569.352 726.143 578.294 726.143 586.264C726.143 591.901 726.629 597.441 727.601 602.884C728.573 608.132 730.225 612.992 732.558 617.463C735.085 621.739 738.487 625.238 742.763 627.96C747.04 630.487 752.483 631.75 759.092 631.75C766.09 631.75 772.796 630.487 779.211 627.96C785.625 625.238 791.651 621.739 797.289 617.463C797.483 611.243 798.455 604.731 800.204 597.927C802.148 590.929 804.578 584.126 807.494 577.517C810.41 570.713 813.714 564.298 817.408 558.272C821.295 552.246 825.28 546.901 829.362 542.235L833.153 544.568C831.015 551.177 829.46 557.981 828.488 564.979C827.516 571.977 827.03 578.877 827.03 585.681C827.03 592.679 827.613 599.288 828.779 605.508C829.946 611.728 831.987 617.171 834.902 621.837C837.818 626.307 841.803 629.904 846.857 632.625C851.911 635.152 858.423 636.416 866.393 636.416C876.112 636.416 885.054 634.18 893.218 629.709C901.382 625.238 908.575 619.601 914.795 612.798L917.128 613.964C913.629 620.767 909.061 627.279 903.424 633.5C897.786 639.72 891.469 645.357 884.471 650.411C877.667 655.271 870.378 659.159 862.602 662.075C854.827 664.99 847.149 666.448 839.568 666.448C828.876 666.448 820.129 663.338 813.326 657.118C806.522 651.092 801.857 643.413 799.33 634.083C791.165 642.247 782.029 649.148 771.921 654.785C762.008 660.228 751.511 662.949 740.431 662.949C732.266 662.949 724.977 661.394 718.562 658.284C712.342 655.368 707.093 651.383 702.817 646.329C698.54 641.275 695.236 635.346 692.903 628.543C690.765 621.545 689.696 614.256 689.696 606.674C689.696 597.927 691.057 588.985 693.778 579.849C696.694 570.519 700.581 561.382 705.441 552.441C710.495 543.499 716.424 535.043 723.227 527.073C730.031 519.103 737.418 512.106 745.388 506.08C753.552 500.054 762.105 495.291 771.047 491.792C779.988 488.293 789.124 486.544 798.455 486.544C800.593 486.544 803.217 486.835 806.328 487.418C809.438 487.807 812.451 488.585 815.367 489.751C818.282 490.917 820.712 492.57 822.656 494.708C824.794 496.846 825.863 499.568 825.863 502.872Z" fill="black"/>
</svg>
